<svg width="184" height="73" viewBox="0 0 184 73" fill="none" xmlns="http://www.w3.org/2000/svg">
<g clip-path="url(#clip0_5_933)">
<path d="M2.64832 21.5725C4.41387 23.5232 6.53252 25.1192 8.12152 27.2472C21.7162 46.2218 41.1373 55.6205 62.6769 60.7632C70.0922 62.5365 78.5668 62.3592 86.1587 60.7632C107.875 56.5072 127.649 47.4632 144.775 33.2765C149.718 29.1979 153.956 24.0552 157.487 18.2032C155.545 18.9125 153.426 19.6219 151.484 20.5085C145.834 22.9912 140.184 25.6512 134.358 27.7792C131.886 28.6659 128.885 28.6659 126.06 28.4885C125.001 28.4885 123.412 26.8925 123.235 25.8285C123.059 24.7645 124.118 22.8139 125.001 22.6365C140.008 18.0259 153.073 9.15921 166.668 1.53388C171.435 -1.12611 174.436 -0.416782 176.555 4.37121C181.675 16.2525 183.97 28.8432 183.617 41.7885C183.617 42.1432 182.911 42.6752 181.851 43.7392C171.435 39.8378 174.613 28.4885 169.493 19.4445C168.257 21.5725 167.374 23.3459 166.315 24.7645C144.069 52.2512 114.584 66.7925 80.3324 72.1125C75.2123 72.9992 69.5626 72.6445 64.2659 71.7578C44.8449 68.3885 27.5425 60.2312 13.2416 46.5765C8.65118 42.1432 5.29664 36.2912 1.9421 30.7939C0.529663 28.6659 0.529664 25.6512 0 23.1685C0.882774 22.6365 1.76555 22.1045 2.64832 21.5725Z" fill="#2E2E2E"/>
</g>
<defs>
<clipPath id="clip0_5_933">
<rect width="183.652" height="72.6261" fill="white"/>
</clipPath>
</defs>
</svg>
