<svg width="147" height="151" viewBox="0 0 147 151" fill="none" xmlns="http://www.w3.org/2000/svg">
<g clip-path="url(#clip0_120_264)">
<path d="M34.6951 42.3647C34.18 42.8163 33.9214 42.8892 33.758 43.1025C26.1192 59.5465 24.8183 76.4047 31.5017 93.3801C33.1788 97.6709 35.9357 101.434 39.489 104.556C47.0466 111.312 57.6744 112.299 66.3772 107.116C70.9282 104.44 74.8153 101.088 76.9961 96.1278C75.8979 93.9023 74.7295 91.7246 73.8672 89.5441C72.4775 85.9801 72.3828 82.3575 74.22 78.8589C75.5214 76.2356 77.6314 74.805 79.5179 75.1647C81.9938 75.6368 83.3257 77.6013 83.5054 79.835C83.7616 82.9385 83.6412 86.0924 83.3554 89.1537C83.1566 91.1319 82.4635 93.138 81.9109 95.0488C88.4818 102.167 98.2908 100.432 105.058 91.031C104.578 89.7176 104.051 88.3341 103.641 86.9731C102.242 81.8798 102.704 76.9582 105.925 72.6237C107.162 70.9657 108.777 69.5631 111.183 70.0828C112.999 70.4902 114.331 72.4548 114.538 75.1823C114.802 79.5092 113.533 83.5439 111.864 87.4411C111.237 88.7878 110.61 90.1345 109.935 91.4111C119.666 102.736 136.607 103.95 144.109 91.695C144.657 92.6548 145.251 93.3789 145.255 93.9906C145.236 94.7201 144.653 95.5253 144.115 96.0948C138.897 101.271 132.865 104.336 125.344 103.085C119.71 102.194 114.725 99.8388 110.133 96.3974C109.494 95.909 108.855 95.4206 108.146 94.9799C108.098 94.9097 107.91 94.9349 107.486 94.9151C106.9 95.4144 106.127 95.939 105.448 96.6038C97.0223 104.467 90.3865 105.279 80.0798 99.465C79.4261 100.318 78.6317 101.266 77.9551 102.237C73.7761 107.733 68.4555 111.545 61.7327 113.44C50.8023 116.549 39.8501 112.811 32.6527 103.558C28.7335 98.534 26.223 92.8624 24.7923 86.6635C21.3954 71.6589 22.6651 57.1773 29.9209 43.3484C30.2457 42.6161 30.6885 41.9063 31.0133 41.174C31.0361 41.0562 31.0113 40.8681 30.9369 40.3041C28.165 41.3641 26.057 43.1005 23.9014 44.7667C21.7686 46.315 19.6606 48.0514 17.3644 49.813C16.3386 47.8457 16.8476 46.4765 17.7579 45.2449C18.8792 43.8702 19.9053 42.3552 21.2645 41.3314C24.9674 38.6161 28.7882 35.9234 32.7993 33.5112C35.9664 31.6713 37.9045 32.7129 38.233 36.0746C38.8693 43.2216 39.4352 50.4164 40.0012 57.6112C40.0796 58.7869 39.9223 59.9177 39.8145 61.4245C37.4317 60.7869 37.2333 59.2829 37.0121 57.8966C36.4129 52.7727 35.6026 47.7918 34.6951 42.3647ZM110.5 73.6182C106.075 77.5399 105.144 82.6775 107.882 87.1706C109.69 82.8723 111.501 78.8798 110.5 73.6182ZM79.354 78.8602C75.8703 82.6558 75.8036 86.7975 79.1272 90.7913C80.2778 86.7341 81.1718 83.0557 79.354 78.8602Z" fill="#2E2E2E"/>
</g>
<defs>
<clipPath id="clip0_120_264">
<rect width="99" height="115" fill="white" transform="translate(146.476 95.1868) rotate(145.864)"/>
</clipPath>
</defs>
</svg>
