<svg width="229" height="206" viewBox="0 0 229 206" fill="none" xmlns="http://www.w3.org/2000/svg">
<g clip-path="url(#clip0_5_963)">
<path d="M206.215 105.829C200.239 102.049 195.361 99.3082 190.723 96.2541C188.05 94.4072 185.064 92.3197 188.117 87.2997C198.196 92.2322 208.363 96.1388 217.399 102.56C221.25 105.21 221.461 108.056 219.206 112.295C218.4 113.866 217.281 115.196 216.32 116.448C210.798 123.257 205.276 130.065 199.518 136.792C197.677 139.062 195.441 141.327 192.377 139.08C189.627 137.075 189.894 133.997 191.342 131.328C193.032 128.346 195.112 125.764 197.116 123.022C198.557 121.143 200.157 119.187 200.815 116.509C199.862 116.972 198.908 117.435 197.955 117.898C187.307 123.069 182.251 122.379 173.307 114.537C166.248 108.139 160.701 100.809 157.305 91.846C156.455 89.7039 155.605 87.5618 154.832 85.5785C151.037 77.0054 146.302 75.7669 139.284 81.9265C135.695 85.0449 132.731 89.0392 129.534 92.5569C120.098 103.428 111.782 104.518 99.8372 96.1682C90.8786 89.9058 83.5166 82.082 78.0692 72.5424C76.4357 69.6015 74.7246 66.5019 72.6919 63.9514C69.2512 59.7263 66.2464 59.6131 63.042 63.9206C59.5197 68.3824 56.8622 73.4069 53.9682 78.3498C51.8799 81.7222 50.3423 85.4168 48.0175 88.7075C43.209 95.3661 36.608 99.1611 28.1593 97.5643C21.8431 96.3078 15.4529 94.4976 9.30307 92.3741C5.28199 90.9857 2.0667 88.0269 2.0447 81.9451C4.09589 82.5213 5.75161 83.093 7.56628 83.5876C14.034 85.5566 20.5017 87.5257 27.1321 89.0228C33.5259 90.4382 38.1422 87.4105 41.1988 81.9956C43.775 77.2071 45.8781 72.2553 48.5318 67.6256C51.023 63.468 53.4365 59.1515 56.7111 55.7926C63.6633 48.2896 73.073 48.6335 79.5627 56.6844C82.5341 60.3512 85.025 64.6445 87.2794 68.8561C91.947 77.2021 98.5292 83.8324 106.231 89.1327C112.677 93.4709 115.767 92.9532 120.882 87.3248C125.117 82.7132 128.961 77.7021 133.744 73.8075C136.775 71.1566 141.062 69.4678 145.183 68.6459C152.316 67.1475 157.981 70.2921 161.322 76.7275C163.03 80.2221 164.656 83.9527 165.728 87.7559C168.414 96.4743 174.205 103.096 180.636 109.013C183.774 111.813 187.085 112.957 191.376 110.873C195.667 108.789 200.265 107.736 206.215 105.829Z" fill="#2E2E2E"/>
</g>
<defs>
<clipPath id="clip0_5_963">
<rect width="228.73" height="205.357" fill="white"/>
</clipPath>
</defs>
</svg>
