<svg width="56" height="56" viewBox="0 0 56 56" fill="none" xmlns="http://www.w3.org/2000/svg">
<path fill-rule="evenodd" clip-rule="evenodd" d="M23.4552 6.62012C23.4688 10.3773 22.191 17.1736 32.0204 18.8162C25.9186 19.6969 23.5869 24.4131 23.4563 30.4626C23.3067 25.8963 23.933 20.6235 13.9229 19.1783C23.5303 18.4186 23.397 10.4813 23.4552 6.62012Z" fill="white" stroke="black" stroke-width="2.36909" stroke-miterlimit="1.5" stroke-linecap="round" stroke-linejoin="round"/>
<path fill-rule="evenodd" clip-rule="evenodd" d="M32.9954 24.9492C33.009 28.7064 30.4496 35.6824 40.279 37.3251C34.1773 38.2058 33.1271 42.7422 32.9965 48.7917C32.8469 44.2251 32.5409 38.9124 25.5977 37.3884C32.3277 36.5853 32.2142 30.0764 32.9954 24.9492Z" fill="white" stroke="black" stroke-width="2.36909" stroke-miterlimit="1.5" stroke-linecap="round" stroke-linejoin="round"/>
<path d="M13.0293 5.52783C14.6158 7.36327 15.8737 9.49234 17.5018 11.2881" stroke="black" stroke-width="2.36909" stroke-miterlimit="1.5" stroke-linecap="round" stroke-linejoin="round"/>
<path d="M28.4287 12.6466C29.6163 11.6679 30.7393 10.5535 31.7015 9.35059" stroke="black" stroke-width="2.36909" stroke-miterlimit="1.5" stroke-linecap="round" stroke-linejoin="round"/>
<path d="M17.9095 25.2915C16.3131 26.7711 14.8306 28.4184 13.3867 30.0473" stroke="black" stroke-width="2.36909" stroke-miterlimit="1.5" stroke-linecap="round" stroke-linejoin="round"/>
<path d="M27.8359 28.6841C28.0102 28.9506 28.2204 29.1934 28.4103 29.4491" stroke="black" stroke-width="2.36909" stroke-miterlimit="1.5" stroke-linecap="round" stroke-linejoin="round"/>
<path d="M25.8574 43.8835C26.2373 43.5052 26.6306 43.1406 27.0046 42.7563" stroke="black" stroke-width="2.36909" stroke-miterlimit="1.5" stroke-linecap="round" stroke-linejoin="round"/>
<path d="M37.0312 31.5758C38.7122 30.0546 40.1743 28.3833 41.5896 26.6167" stroke="black" stroke-width="2.36909" stroke-miterlimit="1.5" stroke-linecap="round" stroke-linejoin="round"/>
<path d="M37.4414 44.0151C39.4232 45.2482 40.8024 47.787 42.1735 49.6417" stroke="black" stroke-width="2.36909" stroke-miterlimit="1.5" stroke-linecap="round" stroke-linejoin="round"/>
</svg>
