<svg width="75" height="75" viewBox="0 0 75 75" fill="none" xmlns="http://www.w3.org/2000/svg">
<path fill-rule="evenodd" clip-rule="evenodd" d="M53.9812 60.8643C58.723 59.3212 60.6139 55.0228 60.6325 50.8636C60.6525 46.38 61.2015 39.7124 61.196 35.2283C61.1935 32.9613 61.1578 29.1256 61.027 26.8598C60.7366 21.8407 58.1434 19.7203 54.4946 19.4239C46.1545 18.7462 37.5584 18.7763 29.3104 19.2821C25.8667 19.4931 21.747 19.4331 18.6668 21.2059C15.6103 22.9652 14.2485 26.3704 14.0545 29.6574C13.9012 32.2574 13.6897 35.0917 13.6749 37.6921C13.6511 41.842 13.4197 47.7285 13.9386 51.8665C14.2477 54.3289 14.7245 57.6296 17.0133 59.2046C20.5474 61.6368 25.2302 61.5302 29.3474 61.4967C39.1694 61.416 52.4996 61.1808 53.9812 60.8643Z" stroke="black" stroke-width="3.50821" stroke-miterlimit="1.5" stroke-linecap="round" stroke-linejoin="round"/>
<path fill-rule="evenodd" clip-rule="evenodd" d="M14.086 32.5143C29.86 31.7109 45.4073 32.1606 61.1911 31.6991C61.1669 29.9636 61.1231 28.1551 61.0484 26.86C60.7579 21.8409 58.1648 19.7203 54.516 19.4239C46.1759 18.7462 37.5797 18.7763 29.3318 19.2821C25.8881 19.4931 21.7684 19.4333 18.6881 21.2062C15.6317 22.9654 14.2699 26.3704 14.0759 29.6574C13.996 31.0137 14.1612 31.0969 14.086 32.5143Z" stroke="black" stroke-width="3.50821" stroke-miterlimit="1.5" stroke-linecap="round" stroke-linejoin="round"/>
<path d="M27.8282 13.7759C27.7128 17.0274 27.5308 20.2811 27.3298 23.528" stroke="black" stroke-width="3.50821" stroke-miterlimit="1.5" stroke-linecap="round" stroke-linejoin="round"/>
<path d="M49.2723 13.2915C49.1569 16.6307 48.9728 19.9711 48.6763 23.2993" stroke="black" stroke-width="3.50821" stroke-miterlimit="1.5" stroke-linecap="round" stroke-linejoin="round"/>
<path d="M34.3131 54.3036C36.1041 48.0429 39.2672 43.0025 44.0158 39.3898C39.7678 39.2803 35.4668 39.7889 31.2112 39.9482" stroke="black" stroke-width="3.50821" stroke-miterlimit="1.5" stroke-linecap="round" stroke-linejoin="round"/>
</svg>
