<svg width="39" height="39" viewBox="0 0 39 39" fill="none" xmlns="http://www.w3.org/2000/svg">
<path fill-rule="evenodd" clip-rule="evenodd" d="M17.8316 33.2239C12.5771 33.2112 1.09348 21.1656 2.06923 13.1647C2.75622 7.53431 7.8133 4.04104 12.5732 5.9724C15.1327 7.01117 16.5119 9.71905 17.8563 11.9934C19.4307 9.5326 21.3562 6.29879 24.2348 5.33181C29.426 3.58786 34.2219 7.55483 34.7462 13.6088C35.4163 21.3475 22.7347 33.2359 17.8316 33.2239Z" stroke="black" stroke-width="2.13444" stroke-miterlimit="1.5" stroke-linecap="round" stroke-linejoin="round"/>
<path d="M29.7002 5.57578C30.1831 5.12353 30.6706 4.67218 31.1897 4.26172" stroke="black" stroke-width="2.13444" stroke-miterlimit="1.5" stroke-linecap="round" stroke-linejoin="round"/>
<path d="M14.9395 7.68552C15.6112 7.21811 16.2374 6.69837 16.8819 6.19629" stroke="black" stroke-width="2.13444" stroke-miterlimit="1.5" stroke-linecap="round" stroke-linejoin="round"/>
<path d="M11.6768 5.66355C12.3482 5.19645 12.9744 4.67671 13.6189 4.17432" stroke="black" stroke-width="2.13444" stroke-miterlimit="1.5" stroke-linecap="round" stroke-linejoin="round"/>
<path d="M33.6885 9.58543C34.3599 9.11801 34.9861 8.59858 35.6306 8.09619" stroke="black" stroke-width="2.13444" stroke-miterlimit="1.5" stroke-linecap="round" stroke-linejoin="round"/>
<path d="M34.6582 15.5609C35.3299 15.0934 35.9561 14.5742 36.6006 14.0718" stroke="black" stroke-width="2.13444" stroke-miterlimit="1.5" stroke-linecap="round" stroke-linejoin="round"/>
<path d="M31.96 21.8744C32.7115 21.5506 33.4288 21.1665 34.1605 20.8027" stroke="black" stroke-width="2.13444" stroke-miterlimit="1.5" stroke-linecap="round" stroke-linejoin="round"/>
<path d="M26.6631 28.0488C27.4154 27.6347 31.75 25.4422 32.4776 24.9888" stroke="black" stroke-width="2.13444" stroke-miterlimit="1.5" stroke-linecap="round" stroke-linejoin="round"/>
<path d="M21.4805 34.3093C22.2249 33.8819 26.52 31.6124 27.2395 31.146" stroke="black" stroke-width="2.13444" stroke-miterlimit="1.5" stroke-linecap="round" stroke-linejoin="round"/>
</svg>
