<svg width="172" height="102" viewBox="0 0 172 102" fill="none" xmlns="http://www.w3.org/2000/svg">
<path fill-rule="evenodd" clip-rule="evenodd" d="M124.017 97.0366C139.374 97.4058 155.067 96.6675 169.751 101.902C170.626 102.211 171.589 101.762 171.905 100.889C172.215 100.017 171.764 99.0568 170.888 98.7414C155.862 93.3856 139.811 94.0567 124.098 93.6809C123.169 93.654 122.395 94.3923 122.374 95.3185C122.348 96.2447 123.088 97.0098 124.017 97.0366Z" fill="black"/>
<path fill-rule="evenodd" clip-rule="evenodd" d="M122.638 74.8105C127.425 70.4198 132.649 67.1306 138.964 65.5003C139.866 65.2681 140.405 64.352 140.176 63.4553C139.94 62.5586 139.018 62.0197 138.123 62.2519C131.256 64.0238 125.567 67.5688 120.363 72.34C119.676 72.9669 119.629 74.0293 120.262 74.7112C120.888 75.3924 121.958 75.4374 122.638 74.8105Z" fill="black"/>
<path fill-rule="evenodd" clip-rule="evenodd" d="M109.32 26.8742C111.515 19.3741 115.837 13.5069 122.462 9.26993C123.243 8.76992 123.471 7.73099 122.967 6.95179C122.468 6.17258 121.425 5.94571 120.644 6.44572C113.312 11.1371 108.519 17.6298 106.088 25.9339C105.826 26.8225 106.344 27.7555 107.233 28.0145C108.128 28.2743 109.064 27.7628 109.32 26.8742Z" fill="black"/>
<path fill-rule="evenodd" clip-rule="evenodd" d="M33.6816 16.696C32.3755 18.2282 31.204 19.8792 30.2076 21.637C29.7633 22.4195 28.9823 24.0826 28.8612 25.5088C28.7265 27.0283 29.2449 28.3103 30.5779 28.9854C32.3485 29.8808 33.7624 29.7875 34.853 29.2458C35.9033 28.7257 36.7246 27.7035 37.243 26.333C38.2327 23.7135 38.0845 19.7101 37.5661 17.4255C38.9598 15.9919 40.488 14.6919 42.124 13.5362C54.3097 4.92864 72.1844 8.10253 85.9387 20.9725C90.7524 25.4786 93.0684 34.9419 94.2735 45.1521C96.1518 61.0497 95.0814 78.8057 94.9332 84.0078C94.8996 85.2924 95.0208 86.0548 95.0881 86.2071C95.4045 86.9561 95.9633 87.1508 96.3538 87.2246C96.9193 87.3253 97.3703 87.2179 97.7339 87.03C98.2253 86.7723 98.6294 86.3185 98.8179 85.6185C98.9189 85.2319 98.9457 84.6937 98.9323 84.1199C98.9188 83.7219 98.838 83.287 98.9188 83.0017C99.4439 81.1748 100.077 79.3909 100.696 77.5942C102.763 71.5546 105.436 65.8947 108.405 60.2416C117.837 42.2789 126.959 23.2994 142.424 9.61396C143.117 8.99985 143.185 7.9381 142.565 7.24547C141.953 6.55284 140.889 6.48974 140.189 7.10451C124.415 21.0604 115.043 40.3668 105.422 58.6852C102.898 63.494 100.582 68.3095 98.6562 73.3465C98.8515 64.4363 98.7774 52.1026 97.1414 41.1896C95.6872 31.4841 92.9202 22.9068 88.2412 18.5262C73.174 4.42729 53.522 1.36887 40.1783 10.7986C38.7511 11.808 37.3912 12.9181 36.1255 14.1221C29.1439 1.5548 14.1979 -3.48223 0.988876 2.52861C0.14059 2.91318 -0.229687 3.90917 0.154061 4.75147C0.544542 5.59376 1.54091 5.9656 2.38919 5.58103C14.2921 0.164832 27.7907 4.99845 33.6816 16.696ZM34.6578 20.9034C34.1124 21.6712 33.6075 22.4672 33.1362 23.29C32.8871 23.7316 32.4562 24.5807 32.2745 25.4115C32.2341 25.6062 32.2274 25.9109 32.2274 26.0518C32.6919 26.28 33.0554 26.3901 33.3516 26.2418C33.7219 26.0592 33.9105 25.6297 34.0923 25.1498C34.5501 23.9457 34.6982 22.3497 34.6578 20.9034Z" fill="black"/>
</svg>
