<svg width="39" height="39" viewBox="0 0 39 39" fill="none" xmlns="http://www.w3.org/2000/svg">
<path d="M26.2796 15.0317C23.1868 8.84101 12.7662 10.2033 11.2778 17.0042C10.3797 21.1078 14.1666 23.9797 14.6557 27.8226H23.3369C23.5922 26.795 24.1115 25.5729 24.4712 24.8218C25.2187 23.2612 26.276 22.2412 26.6774 20.5002C27.0593 18.8437 27.0151 16.5042 26.2796 15.0317Z" stroke="black" stroke-width="2.13444" stroke-miterlimit="1.5" stroke-linecap="round" stroke-linejoin="round"/>
<path fill-rule="evenodd" clip-rule="evenodd" d="M14.4966 33.0604C14.4942 31.8745 14.436 30.6888 14.4565 29.5033C14.4647 29.0339 14.3845 28.4597 14.7908 28.1315C15.384 27.6525 16.2665 27.5827 17.0027 27.565C18.3826 27.532 19.7732 27.5436 21.1545 27.5464C21.7836 27.5475 22.7224 27.4383 23.2894 27.7509C23.8291 28.0479 23.9657 28.8574 24.0264 29.4042C24.1428 30.452 24.4525 32.7917 23.563 33.6028C23.0027 34.1137 22.1288 34.2206 21.4114 34.309C19.5081 34.5432 14.4995 34.4967 14.4966 33.0604Z" stroke="black" stroke-width="2.13444" stroke-miterlimit="1.5" stroke-linecap="round" stroke-linejoin="round"/>
<path d="M19.5686 34.4092C19.5842 35.0545 19.5918 35.7033 19.541 36.3476" stroke="black" stroke-width="2.13444" stroke-miterlimit="1.5" stroke-linecap="round" stroke-linejoin="round"/>
<path d="M4.51855 24.5572C5.19567 24.1998 5.90283 23.9058 6.58719 23.564" stroke="black" stroke-width="2.13444" stroke-miterlimit="1.5" stroke-linecap="round" stroke-linejoin="round"/>
<path d="M4.51855 10.668C5.2744 11.1479 5.99744 11.6784 6.75501 12.1542" stroke="black" stroke-width="2.13444" stroke-miterlimit="1.5" stroke-linecap="round" stroke-linejoin="round"/>
<path d="M19.4368 4.97937C19.4103 4.02879 19.4161 3.08501 19.4465 2.13477" stroke="black" stroke-width="2.13444" stroke-miterlimit="1.5" stroke-linecap="round" stroke-linejoin="round"/>
<path d="M31.1377 11.4543C32.0866 10.8263 33.0637 10.2362 34.0288 9.6333" stroke="black" stroke-width="2.13444" stroke-miterlimit="1.5" stroke-linecap="round" stroke-linejoin="round"/>
<path d="M29.4824 24.4077C30.2141 25.0634 30.9489 25.7115 31.6571 26.3928" stroke="black" stroke-width="2.13444" stroke-miterlimit="1.5" stroke-linecap="round" stroke-linejoin="round"/>
</svg>
