<svg width="59" height="59" viewBox="0 0 59 59" fill="none" xmlns="http://www.w3.org/2000/svg">
<g clip-path="url(#clip0_154_293)">
<path fill-rule="evenodd" clip-rule="evenodd" d="M4.41606 54.2389C15.3345 33.9363 37.1452 25.6822 57.4026 37.112C58.077 37.4926 58.9322 37.2547 59.3128 36.5886C59.6934 35.9107 59.4555 35.0544 58.7811 34.6738C37.0679 22.4113 13.6504 31.1532 1.94693 52.9068C1.5806 53.5847 1.8363 54.4412 2.51781 54.8099C3.19932 55.1667 4.04973 54.9168 4.41606 54.2389Z" fill="black"/>
<path d="M19.1384 26.727C21.3938 26.727 23.2222 24.8987 23.2222 22.6433C23.2222 20.3879 21.3938 18.5596 19.1384 18.5596C16.883 18.5596 15.0547 20.3879 15.0547 22.6433C15.0547 24.8987 16.883 26.727 19.1384 26.727Z" fill="black"/>
<path d="M36.0449 22.3828C38.2562 22.3828 40.0489 20.5902 40.0489 18.3789C40.0489 16.1676 38.2562 14.375 36.0449 14.375C33.8336 14.375 32.041 16.1676 32.041 18.3789C32.041 20.5902 33.8336 22.3828 36.0449 22.3828Z" fill="black"/>
</g>
<defs>
<clipPath id="clip0_154_293">
<rect width="58.1738" height="58.1738" fill="white"/>
</clipPath>
</defs>
</svg>
