<svg width="332" height="242" viewBox="0 0 332 242" fill="none" xmlns="http://www.w3.org/2000/svg">
<path fill-rule="evenodd" clip-rule="evenodd" d="M109 34.7082C79.0496 29.6324 45.3197 31.5293 22.8774 48.8098C-0.249633 66.6176 4.19203 96.9697 31.4928 105.178C35.5659 106.403 39.4027 107.819 44.2604 108.156C44.5407 108.175 52.1303 127.153 52.7092 127.235C53.1677 127.3 70.1607 110.046 70.3917 110.05C74.1967 110.105 78.0254 109.77 81.8499 109.421C100.884 107.682 119.808 102.499 135.066 94.1323C168.627 75.7304 142.188 41.2492 114.641 36.5717" fill="white"/>
<path d="M109 34.7082C79.0496 29.6324 45.3197 31.5293 22.8774 48.8098C-0.249633 66.6176 4.19203 96.9697 31.4928 105.178C35.5659 106.403 39.4027 107.819 44.2604 108.156C44.5407 108.175 52.1303 127.153 52.7092 127.235C53.1677 127.3 70.1607 110.046 70.3917 110.05C74.1967 110.105 78.0254 109.77 81.8499 109.421C100.884 107.682 119.808 102.499 135.066 94.1323C168.627 75.7304 142.188 41.2492 114.641 36.5717" stroke="black" stroke-width="2.01486" stroke-miterlimit="1.5" stroke-linecap="round" stroke-linejoin="round"/>
<path d="M120.268 37.9566C121.539 37.1424 122.739 36.2208 124.029 35.4376" stroke="black" stroke-width="2.01486" stroke-miterlimit="1.5" stroke-linecap="round" stroke-linejoin="round"/>
<path d="M125.5 39.9274C127.269 38.6663 129.015 37.3868 130.806 36.1577" stroke="black" stroke-width="2.01486" stroke-miterlimit="1.5" stroke-linecap="round" stroke-linejoin="round"/>
<path d="M130.261 42.4259C132.03 41.0613 133.766 39.4252 135.697 38.2905" stroke="black" stroke-width="2.01486" stroke-miterlimit="1.5" stroke-linecap="round" stroke-linejoin="round"/>
<path d="M135.032 45.5587C136.778 44.0392 138.754 42.3788 140.796 41.2463" stroke="black" stroke-width="2.01486" stroke-miterlimit="1.5" stroke-linecap="round" stroke-linejoin="round"/>
<path d="M140.039 49.8541C141.617 48.3628 143.412 47.1436 145.218 45.9469" stroke="black" stroke-width="2.01486" stroke-miterlimit="1.5" stroke-linecap="round" stroke-linejoin="round"/>
<path d="M144.491 54.9064C145.829 53.6487 147.16 52.4107 148.684 51.3744" stroke="black" stroke-width="2.01486" stroke-miterlimit="1.5" stroke-linecap="round" stroke-linejoin="round"/>
<path d="M147.728 60.1311C149.167 58.7934 150.753 57.3757 152.458 56.3645" stroke="black" stroke-width="2.01486" stroke-miterlimit="1.5" stroke-linecap="round" stroke-linejoin="round"/>
<path d="M150.19 66.6183C151.739 65.2779 153.422 64.1116 155.031 62.8461" stroke="black" stroke-width="2.01486" stroke-miterlimit="1.5" stroke-linecap="round" stroke-linejoin="round"/>
<path d="M150.681 74.4286C152.244 73.2552 153.734 71.944 155.417 70.9375" stroke="black" stroke-width="2.01486" stroke-miterlimit="1.5" stroke-linecap="round" stroke-linejoin="round"/>
<path d="M31.072 108.716C32.212 107.785 33.4353 106.936 34.6638 106.126" stroke="black" stroke-width="2.01486" stroke-miterlimit="1.5" stroke-linecap="round" stroke-linejoin="round"/>
<path d="M39.2537 111.03C40.5944 110.028 41.9949 109.075 43.3608 108.106" stroke="black" stroke-width="2.01486" stroke-miterlimit="1.5" stroke-linecap="round" stroke-linejoin="round"/>
<path d="M70.9102 115.051C72.5985 113.351 74.2728 111.638 75.8957 109.876" stroke="black" stroke-width="2.01486" stroke-miterlimit="1.5" stroke-linecap="round" stroke-linejoin="round"/>
<path d="M68.1521 117.959C66.8462 119.456 65.2859 120.711 63.9534 122.192" stroke="black" stroke-width="2.01486" stroke-miterlimit="1.5" stroke-linecap="round" stroke-linejoin="round"/>
<path d="M61.4817 124.886C59.2067 126.557 57.699 129.12 55.637 131.031" stroke="black" stroke-width="2.01486" stroke-miterlimit="1.5" stroke-linecap="round" stroke-linejoin="round"/>
<path d="M79.2395 114.084C81.5089 112.49 83.4867 110.54 85.8073 109.012" stroke="black" stroke-width="2.01486" stroke-miterlimit="1.5" stroke-linecap="round" stroke-linejoin="round"/>
<path d="M90.3298 113.001C92.2762 111.155 94.1175 108.961 96.3339 107.431" stroke="black" stroke-width="2.01486" stroke-miterlimit="1.5" stroke-linecap="round" stroke-linejoin="round"/>
<path d="M100.653 111.009C102.353 108.861 104.391 106.737 106.644 105.144" stroke="black" stroke-width="2.01486" stroke-miterlimit="1.5" stroke-linecap="round" stroke-linejoin="round"/>
<path d="M111.768 108.698C113.962 106.025 116.537 103.31 119.309 101.224" stroke="black" stroke-width="2.01486" stroke-miterlimit="1.5" stroke-linecap="round" stroke-linejoin="round"/>
<path d="M123.369 104.557C126.149 101.137 129.891 98.0317 133.244 95.1547" stroke="black" stroke-width="2.01486" stroke-miterlimit="1.5" stroke-linecap="round" stroke-linejoin="round"/>
<path d="M136.225 100.764C142.025 93.3262 148.81 86.5518 155.061 79.4913" stroke="black" stroke-width="2.01486" stroke-miterlimit="1.5" stroke-linecap="round" stroke-linejoin="round"/>
<path d="M146.472 96.4747C149.055 93.4015 151.825 90.4036 154.538 87.4374" stroke="black" stroke-width="2.01486" stroke-miterlimit="1.5" stroke-linecap="round" stroke-linejoin="round"/>
<path d="M52.7389 64.4918C55.0675 64.4648 56.8397 65.3699 58.0553 67.2071C59.2709 69.0442 59.895 71.3659 59.9275 74.1723C59.96 76.9786 59.293 79.5442 57.9265 81.8691C56.5797 84.1738 55.0007 85.3367 53.1895 85.3577C51.9158 85.3724 50.972 84.6667 50.3583 83.2406C49.7446 81.8145 49.3329 79.779 49.1231 77.134C48.3008 78.3179 47.3609 79.6625 46.3034 81.1676C44.2667 84.0577 42.8304 85.5075 41.9944 85.5172C41.676 85.5209 41.3048 85.2664 40.8808 84.7538C40.4569 84.2411 40.2404 83.5967 40.2314 82.8205C40.2222 82.0243 40.4624 79.5632 40.9521 75.4371C41.4415 71.291 41.6729 68.0636 41.6461 65.7549C41.6376 65.0185 41.8523 64.6477 42.2902 64.6426C42.728 64.6376 43.2385 64.8904 43.8217 65.4012C44.4248 65.9118 44.7289 66.386 44.734 66.8239C44.7388 67.2418 44.4248 69.3455 43.7919 73.1349C43.1788 76.9241 42.8052 79.8944 42.6708 82.0458C43.8612 79.9817 45.2027 78.0751 46.6952 76.326C48.2075 74.5568 49.292 73.6684 49.9488 73.6608C50.6255 73.653 51.1105 75.1403 51.4038 78.1227C51.5162 79.2361 51.7172 80.259 52.0067 81.1912C52.316 82.1232 52.7195 82.5863 53.2171 82.5805C54.3317 82.5676 55.2866 81.6608 56.0819 79.8601C56.8968 78.0392 57.2916 76.0341 57.2663 73.8448C57.2381 71.4166 56.6791 69.552 55.5891 68.2508C55.0238 67.5607 54.4027 67.2195 53.726 67.2273C53.0692 67.2349 52.4994 67.0126 52.0164 66.5604C51.5533 66.1079 51.3198 65.7125 51.3159 65.3742C51.3092 64.797 51.7835 64.5028 52.7389 64.4918ZM65.6613 63.3568C65.6523 62.5806 65.8866 62.1897 66.3643 62.1842C66.7424 62.1798 67.144 62.4737 67.5688 63.066C68.0136 63.658 68.2392 64.2327 68.2457 64.7899C68.2607 66.0836 67.9579 68.2967 67.3372 71.4291C66.7363 74.5413 65.9363 77.6558 64.9373 80.7727C66.8859 77.1472 68.5177 74.5306 69.8328 72.9229C71.1675 71.2951 72.3126 70.4757 73.2679 70.4646C73.7854 70.4586 74.3877 70.8995 75.0747 71.7873C75.7817 72.6749 76.1404 73.5665 76.1508 74.4621C76.1611 75.3578 75.9279 76.7041 75.4511 78.5011C74.2692 83.0135 73.1309 85.276 72.0362 85.2887C71.5984 85.2938 71.376 84.9978 71.3691 84.4007C71.3622 83.8036 71.5894 82.7957 72.0507 81.3771C73.0698 78.2799 73.5731 76.1939 73.5607 75.1192C73.5565 74.7609 73.4635 74.4634 73.2816 74.2266C73.0997 73.9899 72.8794 73.873 72.6207 73.876C72.3619 73.879 72.0451 74.022 71.6702 74.305C71.2952 74.588 70.8431 75.081 70.3138 75.7838C69.6475 76.6873 68.9526 77.7005 68.2291 78.8236C67.5255 79.9465 67.0954 80.6283 66.939 80.869C66.8022 81.0895 66.5482 81.5005 66.1769 82.102C65.8256 82.7032 65.5621 83.1542 65.3864 83.4548C65.2105 83.7355 64.9951 84.0465 64.7403 84.3879C64.2902 85.05 63.9457 85.3824 63.7068 85.3852C63.468 85.3879 63.147 85.1727 62.7439 84.7394C62.3405 84.2863 62.1371 83.9104 62.1336 83.6119C62.13 83.2934 62.2326 82.705 62.4417 81.8467C63.3925 78.0138 63.9892 75.3892 64.2316 73.9731C65.2066 68.7864 65.6832 65.2476 65.6613 63.3568ZM90.1971 75.2251C90.2093 76.2799 89.6421 77.1524 88.4956 77.8425C87.3687 78.5124 86.0788 78.8558 84.6259 78.8726C83.1929 78.8892 81.8874 78.7451 80.7094 78.4402C80.4409 79.3192 80.3107 80.107 80.3188 80.8036C80.3266 81.4803 80.5417 82.0053 80.9641 82.3786C81.4063 82.7517 82.1151 82.9326 83.0903 82.9213C84.0855 82.9098 85.0985 82.7288 86.1296 82.3785C87.1803 82.008 87.7554 81.8222 87.8549 81.8211C88.3724 81.8151 88.6334 82.0111 88.6381 82.4092C88.6443 82.9466 88.044 83.5407 86.8373 84.1917C85.6304 84.8227 84.4497 85.145 83.2954 85.1583C81.7429 85.1763 80.4738 84.7332 79.4879 83.8289C78.5018 82.9048 78.0006 81.7361 77.9843 80.323C77.9679 78.9099 78.329 77.4327 79.0676 75.8914C79.8059 74.3302 80.7661 73.0153 81.948 71.9466C83.13 70.8779 84.3081 70.3368 85.4824 70.3232C86.6567 70.3096 87.7279 70.8545 88.6962 71.958C89.6843 73.0613 90.1846 74.1503 90.1971 75.2251ZM85.659 72.6799C84.9226 72.6885 84.1608 73.0855 83.3737 73.8709C82.5863 74.6364 81.9205 75.5897 81.3764 76.7306C82.1746 76.9005 83.0812 76.9796 84.0963 76.9678C85.1113 76.9561 85.9952 76.7866 86.7478 76.4594C87.5002 76.1123 87.8733 75.67 87.867 75.1326C87.8608 74.5952 87.6057 74.0508 87.1017 73.4993C86.6175 72.9475 86.1366 72.6744 85.659 72.6799ZM94.7052 79.8308C96.5783 76.5645 98.1028 74.1382 99.2788 72.5521C100.474 70.9458 101.45 70.1382 102.207 70.1295C102.983 70.1205 103.714 70.5201 104.4 71.3283C105.106 72.1362 105.465 72.998 105.475 73.9135C105.492 75.3465 105.184 77.1018 104.551 79.1793C103.401 83.0145 102.348 84.9377 101.393 84.9487C100.955 84.9538 100.733 84.6578 100.726 84.0607C100.721 83.6427 100.92 82.7944 101.323 81.5158C101.746 80.217 102.13 78.9486 102.474 77.7105C102.837 76.4522 103.016 75.5146 103.008 74.8976C103.001 74.2607 102.896 73.7941 102.694 73.4979C102.511 73.2014 102.32 73.0543 102.121 73.0566C101.942 73.0587 101.754 73.1206 101.556 73.2423C101.358 73.364 101.132 73.5657 100.876 73.8473C100.641 74.1288 100.415 74.41 100.199 74.6912C99.9834 74.9525 99.7091 75.3339 99.3765 75.8354C99.0639 76.3366 98.8001 76.7677 98.5853 77.1285C98.3703 77.4693 98.0576 77.9706 97.6473 78.6322C97.2369 79.2939 96.9242 79.7952 96.7092 80.136C96.4942 80.4769 96.2109 80.938 95.8593 81.5194C95.5078 82.1007 95.2244 82.5519 95.0091 82.8729C94.8138 83.1936 94.5889 83.5446 94.3346 83.9257C93.8455 84.6679 93.4517 85.0407 93.1532 85.0442C92.8745 85.0474 92.5436 84.8323 92.1604 84.3988C91.7769 83.9454 91.5832 83.5495 91.5793 83.2112C91.5782 83.1116 91.6447 82.8421 91.779 82.4027C92.1437 81.2439 92.5452 79.816 92.9834 78.1189C93.4214 76.402 93.6477 74.4586 93.6624 72.2887C93.7052 70.8351 93.9058 70.1062 94.2641 70.102C94.7019 70.097 95.1424 70.3208 95.5856 70.7735C96.0288 71.2262 96.2536 71.7312 96.26 72.2884C96.2663 72.8258 96.1093 73.8826 95.7892 75.4589C95.4887 77.015 95.1274 78.4723 94.7052 79.8308ZM113.467 85.3464C112.989 85.3519 112.428 85.0499 111.784 84.4402C111.16 83.8105 110.845 83.2866 110.84 82.8687C110.835 82.4507 111 82.0407 111.334 81.6388C111.667 81.2169 112.003 81.004 112.341 81.0001C112.68 80.9961 113.093 81.479 113.582 82.4488C114.071 83.3986 114.318 84.1123 114.324 84.59C114.325 84.7293 114.228 84.8897 114.031 85.0711C113.834 85.2525 113.646 85.3443 113.467 85.3464ZM114.321 66.3166L114.39 67.0921C114.393 67.331 114.265 67.5116 114.008 67.634C113.77 67.7363 113.552 67.7886 113.353 67.7909C113.174 67.7929 112.892 67.5673 112.509 67.1139C112.125 66.6605 111.932 66.2746 111.928 65.9561C111.916 64.8615 112.392 63.8806 113.357 63.0135C114.323 62.1463 115.452 61.7053 116.746 61.6903C118.039 61.6753 119.139 62.0707 120.044 62.8763C120.969 63.6817 121.439 64.781 121.456 66.1743C121.465 66.9903 121.196 67.8493 120.649 68.7514C120.122 69.6533 119.524 70.4365 118.855 71.1012C116.888 73.0946 115.662 74.6814 115.178 75.8614C114.714 77.0412 114.393 77.7118 114.216 77.8731C114.039 78.0344 113.88 78.1158 113.741 78.1174C113.244 78.1232 112.987 77.4892 112.973 76.2154C112.963 75.3994 113.262 74.5201 113.868 73.5775C114.494 72.6346 115.171 71.8107 115.899 71.1055C116.647 70.3803 117.325 69.5861 117.932 68.7232C118.559 67.8401 118.868 67.0701 118.861 66.4133C118.853 65.7565 118.628 65.2416 118.186 64.8685C117.763 64.4753 117.244 64.2822 116.627 64.2894C116.01 64.2965 115.464 64.4919 114.991 64.8756C114.538 65.2591 114.314 65.7394 114.321 66.3166Z" fill="black"/>
<path fill-rule="evenodd" clip-rule="evenodd" d="M225.737 116.822C254.678 111.917 287.271 113.75 308.957 130.448C331.305 147.656 327.013 176.985 300.632 184.916C296.697 186.1 292.989 187.469 288.295 187.794C288.024 187.813 280.69 206.152 280.131 206.231C279.688 206.293 263.268 189.621 263.044 189.624C259.368 189.678 255.668 189.354 251.972 189.017C233.58 187.336 215.294 182.328 200.549 174.243C168.12 156.461 193.668 123.142 220.286 118.622" fill="white"/>
<path d="M225.737 116.822C254.678 111.917 287.271 113.75 308.957 130.448C331.305 147.656 327.013 176.985 300.632 184.916C296.697 186.1 292.989 187.469 288.295 187.794C288.024 187.813 280.69 206.152 280.131 206.231C279.688 206.293 263.268 189.621 263.044 189.624C259.368 189.678 255.668 189.354 251.972 189.017C233.58 187.336 215.294 182.328 200.549 174.243C168.12 156.461 193.668 123.142 220.286 118.622" stroke="black" stroke-width="1.94696" stroke-miterlimit="1.5" stroke-linecap="round" stroke-linejoin="round"/>
<path d="M214.849 119.961C213.621 119.174 212.461 118.283 211.214 117.526" stroke="black" stroke-width="1.94696" stroke-miterlimit="1.5" stroke-linecap="round" stroke-linejoin="round"/>
<path d="M209.793 121.865C208.084 120.646 206.397 119.41 204.666 118.222" stroke="black" stroke-width="1.94696" stroke-miterlimit="1.5" stroke-linecap="round" stroke-linejoin="round"/>
<path d="M205.193 124.279C203.483 122.961 201.806 121.38 199.94 120.283" stroke="black" stroke-width="1.94696" stroke-miterlimit="1.5" stroke-linecap="round" stroke-linejoin="round"/>
<path d="M200.583 127.307C198.895 125.838 196.986 124.234 195.012 123.14" stroke="black" stroke-width="1.94696" stroke-miterlimit="1.5" stroke-linecap="round" stroke-linejoin="round"/>
<path d="M195.744 131.457C194.22 130.016 192.485 128.838 190.74 127.682" stroke="black" stroke-width="1.94696" stroke-miterlimit="1.5" stroke-linecap="round" stroke-linejoin="round"/>
<path d="M191.442 136.339C190.149 135.124 188.863 133.928 187.39 132.926" stroke="black" stroke-width="1.94696" stroke-miterlimit="1.5" stroke-linecap="round" stroke-linejoin="round"/>
<path d="M188.314 141.388C186.924 140.095 185.391 138.725 183.744 137.748" stroke="black" stroke-width="1.94696" stroke-miterlimit="1.5" stroke-linecap="round" stroke-linejoin="round"/>
<path d="M185.935 147.656C184.438 146.361 182.812 145.234 181.257 144.011" stroke="black" stroke-width="1.94696" stroke-miterlimit="1.5" stroke-linecap="round" stroke-linejoin="round"/>
<path d="M185.46 155.204C183.95 154.07 182.51 152.803 180.885 151.83" stroke="black" stroke-width="1.94696" stroke-miterlimit="1.5" stroke-linecap="round" stroke-linejoin="round"/>
<path d="M301.039 188.336C299.937 187.436 298.755 186.616 297.568 185.833" stroke="black" stroke-width="1.94696" stroke-miterlimit="1.5" stroke-linecap="round" stroke-linejoin="round"/>
<path d="M293.133 190.572C291.838 189.604 290.484 188.683 289.164 187.746" stroke="black" stroke-width="1.94696" stroke-miterlimit="1.5" stroke-linecap="round" stroke-linejoin="round"/>
<path d="M262.543 194.457C260.912 192.814 259.294 191.159 257.726 189.456" stroke="black" stroke-width="1.94696" stroke-miterlimit="1.5" stroke-linecap="round" stroke-linejoin="round"/>
<path d="M265.208 197.267C266.47 198.713 267.978 199.926 269.266 201.357" stroke="black" stroke-width="1.94696" stroke-miterlimit="1.5" stroke-linecap="round" stroke-linejoin="round"/>
<path d="M271.654 203.961C273.852 205.576 275.309 208.051 277.302 209.899" stroke="black" stroke-width="1.94696" stroke-miterlimit="1.5" stroke-linecap="round" stroke-linejoin="round"/>
<path d="M254.495 193.522C252.302 191.982 250.391 190.098 248.148 188.622" stroke="black" stroke-width="1.94696" stroke-miterlimit="1.5" stroke-linecap="round" stroke-linejoin="round"/>
<path d="M243.778 192.476C241.897 190.692 240.118 188.572 237.976 187.094" stroke="black" stroke-width="1.94696" stroke-miterlimit="1.5" stroke-linecap="round" stroke-linejoin="round"/>
<path d="M233.803 190.551C232.16 188.476 230.19 186.423 228.014 184.884" stroke="black" stroke-width="1.94696" stroke-miterlimit="1.5" stroke-linecap="round" stroke-linejoin="round"/>
<path d="M223.062 188.318C220.942 185.735 218.454 183.112 215.776 181.095" stroke="black" stroke-width="1.94696" stroke-miterlimit="1.5" stroke-linecap="round" stroke-linejoin="round"/>
<path d="M211.852 184.317C209.166 181.011 205.55 178.011 202.31 175.231" stroke="black" stroke-width="1.94696" stroke-miterlimit="1.5" stroke-linecap="round" stroke-linejoin="round"/>
<path d="M199.43 180.651C193.825 173.464 187.268 166.918 181.229 160.096" stroke="black" stroke-width="1.94696" stroke-miterlimit="1.5" stroke-linecap="round" stroke-linejoin="round"/>
<path d="M189.528 176.507C187.032 173.537 184.355 170.64 181.734 167.774" stroke="black" stroke-width="1.94696" stroke-miterlimit="1.5" stroke-linecap="round" stroke-linejoin="round"/>
<path d="M227.491 137.93C229.741 137.904 231.454 138.778 232.628 140.553C233.803 142.329 234.406 144.572 234.438 147.284C234.469 149.996 233.824 152.475 232.504 154.721C231.203 156.948 229.677 158.072 227.927 158.092C226.696 158.107 225.784 157.425 225.191 156.047C224.598 154.669 224.2 152.702 223.997 150.146C223.203 151.29 222.294 152.589 221.273 154.044C219.305 156.836 217.917 158.237 217.109 158.246C216.801 158.25 216.442 158.004 216.033 157.509C215.623 157.013 215.414 156.391 215.405 155.641C215.396 154.871 215.628 152.493 216.102 148.506C216.575 144.5 216.798 141.381 216.772 139.15C216.764 138.439 216.972 138.08 217.395 138.075C217.818 138.071 218.311 138.315 218.875 138.808C219.457 139.302 219.751 139.76 219.756 140.183C219.761 140.587 219.457 142.62 218.846 146.282C218.253 149.943 217.892 152.813 217.762 154.892C218.913 152.898 220.209 151.055 221.651 149.365C223.113 147.655 224.161 146.797 224.795 146.79C225.449 146.782 225.918 148.219 226.201 151.101C226.31 152.177 226.504 153.165 226.784 154.066C227.083 154.967 227.473 155.414 227.953 155.409C229.03 155.396 229.953 154.52 230.722 152.78C231.509 151.021 231.891 149.083 231.866 146.967C231.839 144.621 231.299 142.819 230.245 141.562C229.699 140.895 229.099 140.565 228.445 140.573C227.81 140.58 227.26 140.366 226.793 139.929C226.346 139.491 226.12 139.109 226.116 138.782C226.11 138.225 226.568 137.94 227.491 137.93ZM239.978 136.833C239.969 136.083 240.196 135.705 240.657 135.7C241.023 135.696 241.411 135.98 241.821 136.552C242.251 137.124 242.469 137.679 242.475 138.218C242.49 139.468 242.197 141.606 241.598 144.633C241.017 147.641 240.244 150.65 239.279 153.662C241.162 150.159 242.738 147.63 244.009 146.077C245.299 144.504 246.405 143.712 247.328 143.701C247.828 143.695 248.41 144.121 249.074 144.979C249.758 145.837 250.104 146.699 250.114 147.564C250.124 148.429 249.899 149.73 249.438 151.467C248.296 155.827 247.196 158.013 246.138 158.026C245.715 158.031 245.5 157.745 245.494 157.168C245.487 156.591 245.706 155.617 246.152 154.246C247.137 151.253 247.623 149.237 247.611 148.199C247.607 147.853 247.517 147.565 247.342 147.336C247.166 147.108 246.953 146.995 246.703 146.998C246.453 147.001 246.147 147.139 245.785 147.412C245.422 147.686 244.985 148.162 244.474 148.841C243.83 149.714 243.159 150.693 242.459 151.779C241.779 152.864 241.364 153.522 241.213 153.755C241.081 153.968 240.835 154.365 240.476 154.946C240.137 155.527 239.882 155.963 239.713 156.254C239.543 156.525 239.334 156.825 239.088 157.155C238.653 157.795 238.32 158.116 238.09 158.119C237.859 158.122 237.549 157.914 237.159 157.495C236.769 157.057 236.573 156.694 236.569 156.405C236.566 156.098 236.665 155.529 236.867 154.7C237.786 150.996 238.362 148.46 238.597 147.091C239.539 142.08 239.999 138.66 239.978 136.833ZM263.687 148.301C263.699 149.321 263.151 150.164 262.043 150.83C260.954 151.478 259.708 151.81 258.304 151.826C256.919 151.842 255.657 151.703 254.519 151.408C254.26 152.257 254.134 153.019 254.142 153.692C254.149 154.346 254.357 154.853 254.765 155.214C255.193 155.574 255.877 155.749 256.82 155.738C257.781 155.727 258.76 155.552 259.757 155.214C260.772 154.856 261.328 154.676 261.424 154.675C261.924 154.669 262.176 154.859 262.181 155.243C262.187 155.763 261.607 156.337 260.441 156.966C259.274 157.575 258.133 157.887 257.018 157.9C255.518 157.917 254.291 157.489 253.339 156.615C252.386 155.722 251.902 154.593 251.886 153.227C251.87 151.862 252.219 150.434 252.933 148.945C253.646 147.437 254.574 146.166 255.716 145.133C256.858 144.101 257.997 143.578 259.131 143.565C260.266 143.551 261.301 144.078 262.237 145.144C263.192 146.21 263.675 147.263 263.687 148.301ZM259.302 145.842C258.59 145.85 257.854 146.234 257.094 146.993C256.333 147.732 255.689 148.654 255.164 149.756C255.935 149.92 256.811 149.997 257.792 149.985C258.773 149.974 259.627 149.81 260.354 149.494C261.081 149.159 261.442 148.731 261.436 148.212C261.43 147.693 261.183 147.167 260.696 146.634C260.228 146.1 259.763 145.837 259.302 145.842ZM266.88 146.995L266.769 144.832C266.758 143.928 266.964 143.474 267.388 143.469C267.753 143.465 268.102 143.701 268.434 144.178C268.786 144.636 268.966 145.191 268.973 145.845C268.98 146.48 268.967 146.961 268.932 147.288C270.576 144.73 272.148 143.443 273.648 143.425C274.59 143.414 275.064 143.64 275.07 144.101C275.072 144.332 274.969 144.545 274.76 144.74C274.55 144.934 274.216 145.159 273.758 145.415C272.743 145.869 271.886 146.562 271.185 147.493C270.503 148.405 269.948 149.441 269.519 150.6C269.09 151.759 268.745 152.734 268.485 153.526C268.244 154.317 268.059 154.935 267.929 155.379C267.8 155.823 267.651 156.257 267.483 156.682C267.184 157.455 266.833 157.844 266.429 157.848C266.102 157.852 265.831 157.673 265.615 157.31C265.418 156.927 265.318 156.563 265.314 156.217C265.309 155.851 265.465 155.138 265.779 154.076C266.54 151.644 266.907 149.283 266.88 146.995ZM286.225 148.04C286.237 149.06 285.689 149.903 284.581 150.569C283.492 151.217 282.245 151.549 280.842 151.565C279.457 151.581 278.195 151.442 277.057 151.147C276.798 151.996 276.672 152.758 276.68 153.431C276.687 154.085 276.895 154.592 277.303 154.953C277.73 155.313 278.415 155.488 279.358 155.477C280.319 155.466 281.298 155.291 282.294 154.953C283.31 154.595 283.866 154.415 283.962 154.414C284.462 154.408 284.714 154.598 284.718 154.982C284.724 155.502 284.144 156.076 282.978 156.705C281.812 157.314 280.671 157.626 279.556 157.639C278.056 157.656 276.829 157.228 275.877 156.354C274.924 155.461 274.439 154.332 274.424 152.966C274.408 151.601 274.757 150.173 275.47 148.684C276.184 147.176 277.112 145.905 278.254 144.872C279.396 143.84 280.534 143.317 281.669 143.304C282.804 143.29 283.839 143.817 284.775 144.883C285.729 145.949 286.213 147.002 286.225 148.04ZM281.84 145.581C281.128 145.589 280.392 145.973 279.631 146.732C278.871 147.471 278.227 148.393 277.701 149.495C278.473 149.659 279.349 149.736 280.33 149.724C281.311 149.713 282.165 149.549 282.892 149.233C283.619 148.898 283.979 148.47 283.973 147.951C283.967 147.432 283.721 146.906 283.234 146.373C282.766 145.839 282.301 145.576 281.84 145.581ZM293.328 157.999C292.867 158.004 292.325 157.712 291.702 157.123C291.099 156.514 290.795 156.008 290.79 155.604C290.786 155.2 290.944 154.804 291.267 154.416C291.589 154.008 291.914 153.803 292.241 153.799C292.568 153.795 292.967 154.262 293.44 155.199C293.912 156.116 294.151 156.806 294.156 157.268C294.158 157.402 294.064 157.557 293.873 157.733C293.683 157.908 293.501 157.997 293.328 157.999ZM294.154 139.61L294.22 140.359C294.223 140.59 294.1 140.765 293.851 140.883C293.622 140.982 293.411 141.032 293.218 141.035C293.045 141.037 292.773 140.819 292.403 140.381C292.032 139.942 291.845 139.57 291.842 139.262C291.829 138.204 292.29 137.256 293.222 136.418C294.155 135.58 295.247 135.154 296.497 135.14C297.747 135.125 298.809 135.507 299.684 136.286C300.578 137.064 301.032 138.126 301.048 139.473C301.057 140.261 300.797 141.091 300.269 141.963C299.76 142.834 299.182 143.591 298.535 144.233C296.634 146.16 295.45 147.693 294.982 148.833C294.534 149.973 294.224 150.621 294.052 150.777C293.881 150.933 293.728 151.012 293.593 151.013C293.113 151.019 292.865 150.406 292.851 149.175C292.842 148.387 293.13 147.537 293.716 146.626C294.321 145.715 294.975 144.919 295.679 144.238C296.402 143.537 297.056 142.769 297.643 141.936C298.249 141.082 298.548 140.338 298.54 139.704C298.533 139.069 298.316 138.571 297.888 138.211C297.48 137.831 296.978 137.644 296.382 137.651C295.785 137.658 295.259 137.847 294.801 138.218C294.363 138.588 294.147 139.052 294.154 139.61Z" fill="black"/>
</svg>
