<svg width="267" height="31" viewBox="0 0 267 31" fill="none" xmlns="http://www.w3.org/2000/svg">
<path fill-rule="evenodd" clip-rule="evenodd" d="M113.326 10.9842C100.79 11.486 88.4014 12.1029 76.3205 12.7774C59.2186 13.7316 42.1234 14.7187 25.1312 16.2816C19.7824 16.7751 14.3507 17.0877 9.03534 17.7046C5.69871 18.0912 1.27441 18.6423 0.693779 18.7574C0.390084 18.8232 0.257593 18.922 0.214781 18.9549C-0.0862381 19.1852 -0.0313132 19.4072 0.138595 19.58C0.206826 19.654 0.379362 19.835 0.858317 19.8597C32.8894 21.546 65.643 18.2557 97.7129 17.9102C153.328 17.318 210.628 19.6705 265.802 24.8034C266.284 24.8445 266.752 24.6388 266.819 24.3344C266.899 24.0383 266.551 23.7504 266.07 23.7093C210.803 18.5682 153.408 16.2075 97.6861 16.8079C67.7983 17.1287 37.3204 20.016 7.3911 19.0289C8.07876 18.9467 8.75308 18.8644 9.36849 18.7903C14.6624 18.1734 20.0714 17.8691 25.3988 17.3756C42.3548 15.8127 59.4153 14.8256 76.4944 13.8797C97.6862 12.6952 119.801 11.6752 142.09 11.1981C150.063 11.2721 158.01 11.3462 165.957 11.4367C183.149 11.6341 200.421 12.2099 217.572 12.9831C222.736 13.2216 227.9 13.4684 233.064 13.6822C234.777 13.7563 239.192 13.9701 239.807 13.9537C240.57 13.9372 240.717 13.5424 240.73 13.4766C240.771 13.3285 240.744 13.1229 240.369 12.9502C240.329 12.9255 240.088 12.8432 239.553 12.7938C208.368 9.88193 175.068 9.39669 142.117 10.0959C107.359 9.79153 72.4675 9.65986 37.7981 9.52002C37.3017 9.52002 36.8964 9.76683 36.8923 10.0712C36.8897 10.3755 37.2896 10.6223 37.786 10.6306C62.8897 10.7293 88.1204 10.8279 113.326 10.9842Z" fill="black"/>
</svg>
